# xmcd
#
# Track frame offsets: 
#        150
#        15137
#        24757
#        42377
#        54680
#        70365
#        85280
#        102880
#        119920
#        137100
#        151345
#        165640
#        183267
#        191357
#        208572
#        226807
#        239990
#        253945
#        278952
#
# Disc length: 3909 seconds
#
# Revision: 4
# Processed by: cddbd v1.5.2PL0 Copyright (c) Steve Scherf et al.
# Submitted via: ExactAudioCopy v1.3
#
DISCID=0b0f4313
DTITLE=The Clash - London Calling
DYEAR=1999
DGENRE=Punk Rock
TTITLE0=London Calling
TTITLE1=Brand New Cadillac
TTITLE2=Jimmy Jazz
TTITLE3=Hateful
TTITLE4=Rudie Can't Fail
TTITLE5=Spanish Bombs
TTITLE6=The Right Profile
TTITLE7=Lost In The Supermarket
TTITLE8=Clampdown
TTITLE9=The Guns Of Brixton
TTITLE10=Wrong 'Em Boyo
TTITLE11=Death Or Glory
TTITLE12=Koka Kola
TTITLE13=The Card Cheat
TTITLE14=Lover's Rock
TTITLE15=Four Horsemen
TTITLE16=I'm Not Down
TTITLE17=Revolution Rock
TTITLE18=Train In Vain
EXTD=
EXTT0=
EXTT1=
EXTT2=
EXTT3=
EXTT4=
EXTT5=
EXTT6=
EXTT7=
EXTT8=
EXTT9=
EXTT10=
EXTT11=
EXTT12=
EXTT13=
EXTT14=
EXTT15=
EXTT16=
EXTT17=
EXTT18=
PLAYORDER=
